<svg width="204" height="204" viewBox="0 0 204 204" fill="none" xmlns="http://www.w3.org/2000/svg">
<g clip-path="url(#clip0_3_1658)">
<path d="M102 204C158.333 204 204 158.333 204 102C204 45.667 158.333 0 102 0C45.667 0 0 45.667 0 102C0 158.333 45.667 204 102 204Z" fill="#4AA1F8"/>
<path d="M22.4815 101.127L28.4497 101.522L28.2086 97.2769L30.4377 97.1504L30.6946 101.672L36.232 102.032L36.3545 104.201L30.8172 103.842L31.1452 109.616L36.6826 109.976L36.8051 112.146L31.2677 111.786L31.5088 116.003L29.2797 116.13L29.0228 111.64L23.0546 111.213L23.2957 115.49L21.0666 115.616L20.8097 111.063L15.2723 110.703L15.1498 108.533L20.6871 108.893L20.3591 103.15L14.8217 102.79L14.6992 100.621L20.2366 100.98L19.9955 96.763L22.2246 96.6366L22.4776 101.127H22.4815ZM22.6041 103.292L22.9281 109.035L28.8963 109.462L28.5682 103.688L22.6001 103.292H22.6041Z" fill="white"/>
<path d="M19.9243 82.1431L18.0745 89.2495L15.4976 88.5776L19.9638 71.436L22.5408 72.1079L20.691 79.2143L38.8405 83.9414L38.0777 86.8741L19.9282 82.147L19.9243 82.1431Z" fill="white"/>
<path d="M47.5671 59.8356L49.8555 61.1953L41.9191 74.5505L23.5127 63.6102L31.2318 50.6225L33.5202 51.9822L27.3623 62.3415L33.0143 65.701L38.5003 56.4721L40.7373 57.8001L35.2514 67.029L41.1919 70.5625L47.5671 59.8356Z" fill="white"/>
<path d="M60.6655 43.9706L51.9543 51.2945L53.5946 56.9069L51.1836 58.9345L44.8281 36.3029L47.1482 34.3544L68.3727 44.4844L65.9143 46.5516L60.6655 43.9706ZM58.2703 42.7849L47.9822 37.7258L51.1994 48.7293L58.2703 42.7849Z" fill="white"/>
<path d="M90.6762 36.7575L86.044 21.8608L82.4868 36.5678L81.143 36.9828L69.9379 26.9318L74.5148 41.7494L71.7086 42.615L65.3887 22.1533L67.7838 21.4142L80.7596 33.1568L84.7357 16.1772L87.1309 15.4381L93.4824 35.8879L90.6762 36.7535V36.7575Z" fill="white"/>
<path d="M137.84 20.5723L126.702 40.1012L119.13 38.4965L118.118 26.5879L112.185 37.0262L104.612 35.4215L102.344 13.0548L109.616 14.5963L110.747 27.2796L117.13 16.1851L123.624 17.5606L124.722 30.3941L131.137 19.1495L137.84 20.5684V20.5723Z" fill="#05468A"/>
<path d="M147.31 49.2827L140.848 44.3382L137.441 46.429L131.611 41.9707L152.053 30.647L157.689 34.9591L152.116 57.6539L146.188 53.1205L147.314 49.2827H147.31ZM148.887 43.943L150.504 38.4017L145.583 41.4134L148.887 43.939V43.943Z" fill="#05468A"/>
<path d="M166.725 52.3656L163.128 47.2274L167.713 44.0181L179.048 60.2072L174.463 63.4165L170.867 58.2784L157.911 67.3492L153.769 61.4364L166.725 52.3656Z" fill="#05468A"/>
<path d="M172.713 89.9926L167.507 91.5893L162.294 74.5663L182.767 68.2938L187.866 84.9374L182.661 86.5342L179.641 76.6769L177.242 77.412L179.894 86.0678L174.922 87.5934L172.27 78.9377L169.578 79.7598L172.716 89.9965L172.713 89.9926Z" fill="#05468A"/>
<path d="M172.982 105.182L173.08 103.225L167.701 102.953L168.069 95.7433L189.459 96.8302L188.938 107.126C188.637 113.087 185.325 116.715 180.377 116.462C177.29 116.304 175.045 114.723 173.859 112.087L167.029 116.244L167.421 108.545L172.982 105.182ZM183.396 106.383L183.531 103.755L178.519 103.502L178.385 106.13C178.286 108.114 179.183 109.11 180.74 109.189C182.297 109.268 183.293 108.367 183.396 106.383Z" fill="#05468A"/>
<path d="M100.146 50.3854C99.6325 51.662 99.1187 52.9347 98.6088 54.2113C96.3164 59.9107 93.7908 65.539 90.87 70.9419C88.3681 75.5623 85.7753 80.1273 83.147 84.6805C82.9849 84.9611 82.8268 85.2378 82.6648 85.5184C75.7836 97.4191 68.9183 109.344 62.4561 121.474C56.2271 133.169 55.4049 146.951 59.8396 159.397C62.3414 166.416 66.3966 172.926 71.6375 178.226L72.926 179.479C77.0523 183.353 81.8466 186.503 87.1705 188.586C91.8857 190.427 96.9409 191.348 102.004 191.372C107.067 191.348 112.122 190.427 116.837 188.586C122.161 186.503 126.952 183.357 131.082 179.479L132.37 178.226C137.611 172.926 141.666 166.416 144.168 159.397C148.607 146.951 147.785 133.169 141.552 121.474C135.09 109.344 128.224 97.4191 121.343 85.5184C118.248 80.1669 115.011 74.8983 112.351 69.3096C111.102 66.6852 109.952 64.0133 108.901 61.302C108.399 60.0056 105.122 51.3577 104.755 50.4052C104.407 49.591 103.573 47.5278 102.549 47.5278C101.719 47.5278 100.747 48.9941 100.15 50.3893L100.146 50.3854Z" fill="white"/>
<path d="M113.75 174.226C150.931 151.512 121.177 119.505 121.177 119.505C133.603 146.611 113.75 174.226 113.75 174.226Z" fill="#05468A"/>
</g>
<defs>
<clipPath id="clip0_3_1658">
<rect width="204" height="204" fill="white"/>
</clipPath>
</defs>
</svg>